<?xml version="1.0" standalone="no"?>
<!DOCTYPE svg PUBLIC "-//W3C//DTD SVG 20010904//EN"
 "http://www.w3.org/TR/2001/REC-SVG-20010904/DTD/svg10.dtd">
<svg version="1.0" xmlns="http://www.w3.org/2000/svg"
 width="400.000000pt" height="400.000000pt" viewBox="0 0 400.000000 400.000000"
 preserveAspectRatio="xMidYMid meet">
<metadata>
Created by potrace 1.11, written by Peter Selinger 2001-2013
</metadata>
<g transform="translate(0.000000,400.000000) scale(0.100000,-0.100000)"
fill="#000000" stroke="none">
<path d="M1525 3783 c-91 -48 -121 -117 -79 -181 9 -13 14 -25 12 -26 -2 -1
-16 -6 -33 -12 -27 -8 -30 -13 -27 -44 3 -32 19 -54 46 -63 7 -2 10 -28 8 -71
-2 -47 2 -73 13 -89 8 -12 15 -34 15 -50 0 -15 7 -43 14 -62 9 -21 16 -73 17
-128 1 -50 9 -123 19 -161 l17 -69 -32 -56 c-18 -31 -36 -66 -39 -78 -8 -25
16 -88 45 -119 22 -23 75 -158 84 -210 14 -93 23 -563 12 -684 -20 -225 -24
-407 -12 -495 5 -33 9 -107 10 -165 0 -147 -12 -461 -19 -467 -3 -3 -61 -5
-130 -4 -133 1 -133 1 -132 -54 1 -30 0 -30 -59 -35 l-60 -5 0 -127 0 -128
777 0 778 0 0 130 0 129 -62 3 -63 3 0 40 0 40 -179 2 c-107 2 -182 7 -186 13
-3 5 -7 55 -9 111 -2 83 1 105 16 127 15 23 17 49 17 167 0 77 -4 198 -8 268
-7 120 -6 131 14 164 21 36 22 82 5 218 -3 22 -7 64 -10 93 l-4 52 49 25 c55
28 77 55 110 137 15 38 35 66 55 79 47 33 78 87 80 139 0 25 9 59 18 77 17 32
17 33 -10 50 -14 10 -56 30 -92 45 l-66 26 -25 -31 c-14 -17 -30 -37 -36 -46
-10 -12 -17 -11 -56 12 -58 34 -63 41 -82 115 -24 92 -36 111 -79 133 -58 30
-79 84 -75 198 2 50 6 92 8 95 3 2 23 7 45 11 22 3 56 10 75 14 29 8 31 9 10
11 -72 5 -126 12 -132 18 -4 4 22 22 57 41 36 19 63 36 61 38 -2 2 -34 -4 -71
-12 -93 -22 -101 -17 -67 42 48 82 45 89 -17 30 -33 -31 -63 -57 -68 -57 -10
0 -35 16 -33 21 1 2 -1 20 -5 39 -12 69 -13 75 -14 89 -2 28 -12 3 -17 -40 -9
-76 -13 -92 -26 -101 -19 -12 -19 -12 -93 49 l-68 57 28 -49 c16 -28 33 -56
38 -62 5 -7 7 -19 4 -27 -5 -13 -13 -13 -59 0 -29 7 -54 14 -55 14 -2 0 -3 -6
-3 -13 0 -8 18 -19 40 -26 52 -15 60 -31 16 -31 -26 0 -36 -4 -36 -15 0 -16 6
-19 52 -29 17 -4 29 -15 35 -33 13 -40 16 -130 5 -137 -17 -10 -71 53 -83 97
-6 23 -19 68 -30 99 -10 32 -19 73 -19 92 0 19 -15 83 -34 143 -25 83 -33 126
-34 186 0 55 -5 84 -17 103 -14 22 -15 31 -5 55 7 16 19 29 28 29 30 0 48 28
44 66 -4 29 -10 38 -34 46 l-30 11 26 16 c27 16 31 34 20 90 -6 29 -10 31 -34
26 -28 -6 -29 -5 -33 55 -2 34 -2 34 -42 13z m514 -918 c34 -33 21 -41 -25
-16 -51 27 -81 26 -126 -4 -41 -28 -58 -31 -58 -12 1 64 153 87 209 32z m-49
-41 c12 -12 11 -14 -9 -14 -19 0 -23 -4 -19 -25 3 -14 -1 -30 -8 -36 -8 -6
-14 -17 -14 -24 0 -8 -6 -16 -12 -18 -8 -3 -6 -6 5 -6 20 -1 23 -27 3 -34 -26
-10 -61 17 -64 50 -3 27 2 34 27 48 32 16 33 38 3 50 -14 5 -13 9 8 20 27 15
56 11 80 -11z m-300 -73 c-26 -92 -136 -145 -186 -90 l-19 21 32 -19 c31 -17
34 -17 65 0 18 10 49 40 68 67 40 56 52 63 40 21z m323 -12 c-6 -23 -19 -25
-27 -3 -10 26 -7 32 13 27 13 -3 17 -11 14 -24z m-165 -149 c31 -19 67 -28
120 -29 28 -1 72 -43 72 -69 0 -81 -331 -415 -372 -374 -12 12 5 30 86 95 49
40 89 94 101 137 7 25 7 24 -21 -5 -33 -34 -99 -86 -130 -103 -16 -8 -24 -8
-32 0 -21 21 -13 32 48 73 45 31 67 54 91 98 34 65 32 83 -6 47 -14 -13 -27
-21 -31 -18 -3 3 2 33 10 66 9 33 16 69 16 81 0 26 6 26 48 1z m206 -232 c-3
-13 -28 -68 -55 -123 -53 -108 -100 -173 -166 -225 -64 -52 -156 -70 -170 -34
-8 22 22 49 102 94 44 23 89 58 114 87 82 96 171 208 171 215 0 5 3 8 6 8 3 0
2 -10 -2 -22z m488 -87 c46 -20 47 -21 37 -50 -7 -19 -18 -31 -29 -31 -32 0
-49 -11 -70 -45 -13 -21 -19 -43 -15 -57 4 -17 -9 -45 -47 -103 -28 -44 -53
-82 -55 -84 -9 -12 -26 23 -29 61 -2 24 -6 72 -9 107 l-5 64 66 88 c73 97 60
92 156 50z"/>
</g>
</svg>
